<?xml version="1.0" encoding="UTF-8"?>
<svg xmlns="http://www.w3.org/2000/svg" xmlns:xlink="http://www.w3.org/1999/xlink" viewBox="0 0 184.51 185.73">
  <defs>
    <style>
      .cls-1 {
        fill: #fff;
      }

      .cls-2 {
        stroke: #c4d3f0;
      }

      .cls-2, .cls-3, .cls-4, .cls-5 {
        fill: none;
      }

      .cls-2, .cls-5 {
        stroke-miterlimit: 10;
        stroke-width: 3px;
      }

      .cls-6 {
        fill: #c4d3f0;
      }

      .cls-7 {
        fill: #0c40a3;
      }

      .cls-4 {
        clip-path: url(#clippath);
      }

      .cls-5 {
        stroke: #0c40a3;
      }
    </style>
    <clipPath id="clippath">
      <circle class="cls-3" cx="92.37" cy="94.64" r="91.07"/>
    </clipPath>
  </defs>
  <g id="Layer_2" data-name="Layer 2">
    <g id="Layer_6" data-name="Layer 6">
      <circle class="cls-6" cx="92.37" cy="94.64" r="91.07"/>
    </g>
    <g id="Layer_4" data-name="Layer 4">
      <circle class="cls-3" cx="92.01" cy="91.07" r="91.07"/>
    </g>
  </g>
  <g id="Layer_4-2" data-name="Layer 4">
    <g id="Layer_3-2" data-name="Layer 3">
      <g class="cls-4">
        <g>
          <path class="cls-7" d="m0,94.64h10.85l20.35,11.78,12.06,3.88c5.03-.4,10.07-.8,15.1-1.2,5.24-3.8,10.46-7.59,15.7-11.39l19.85-5.28,12.09,3.91c4.94,2.84,9.89,5.67,14.83,8.51l9.65,3.4c6.31.37,12.62.74,18.92,1.1,3.92-2.75,7.84-5.5,11.76-8.25l10.69-6.47h12.62c-.08,5.92-1.18,42.37-31.61,68.64-23.83,20.57-50.99,22.24-58.96,22.44-7.95.17-21.93-.54-37.55-7.15-4.34-1.83-20.36-9.01-34.27-25.49C2.61,129.98.35,104.06,0,94.64Z"/>
          <path class="cls-5" d="m.23,93.15c23.03,0,23.03,16,46.07,16s23.03-16,46.07-16,23.03,16,46.07,16,23.03-16,46.07-16"/>
          <path class="cls-2" d="m.23,117.1c23.03,0,23.03,16,46.07,16s23.03-16,46.07-16,23.03,16,46.07,16,23.03-16,46.07-16"/>
          <path class="cls-2" d="m.23,141.06c23.03,0,23.03,16,46.07,16s23.03-16,46.07-16,23.03,16,46.07,16,23.03-16,46.07-16"/>
          <path class="cls-2" d="m.23,165.01c23.03,0,23.03,16,46.07,16s23.03-16,46.07-16,23.03,16,46.07,16,23.03-16,46.07-16"/>
        </g>
      </g>
    </g>
  </g>
  <g id="Layer_5" data-name="Layer 5">
    <g id="Layer_5-2" data-name="Layer 5">
      <path class="cls-1" d="m117.92,64.92c-18.76,4.97-21.8,9.01-25.55,33.89-3.75-24.88-6.79-28.91-25.55-33.89,18.76-4.97,21.8-9.01,25.55-33.89,3.75,24.88,6.79,28.91,25.55,33.89Z"/>
      <g>
        <line class="cls-1" x1="106.83" y1="49.85" x2="118.82" y2="41.04"/>
        <path class="cls-1" d="m107.58,51.14c3.51-2.57,7.01-5.15,10.52-7.72l1.48-1.08c.65-.48.98-1.3.54-2.05-.38-.64-1.4-1.02-2.05-.54-3.51,2.57-7.01,5.15-10.52,7.72l-1.48,1.08c-.65.48-.98,1.3-.54,2.05.38.64,1.4,1.02,2.05.54h0Z"/>
      </g>
      <g>
        <line class="cls-1" x1="107.21" y1="78.7" x2="118.44" y2="88.57"/>
        <path class="cls-1" d="m106.15,79.76c3.28,2.88,6.56,5.77,9.84,8.65.46.41.93.82,1.39,1.22.61.53,1.52.6,2.12,0,.55-.55.61-1.58,0-2.12-3.28-2.88-6.56-5.77-9.84-8.65-.46-.41-.93-.82-1.39-1.22-.61-.53-1.52-.6-2.12,0-.55.55-.61,1.58,0,2.12h0Z"/>
      </g>
      <g>
        <line class="cls-1" x1="79.34" y1="49.13" x2="67.38" y2="40.57"/>
        <path class="cls-1" d="m80.09,47.83c-3.49-2.49-6.97-4.99-10.46-7.48-.5-.36-1-.72-1.5-1.07-.66-.47-1.67-.12-2.05.54-.44.75-.12,1.58.54,2.05,3.49,2.49,6.97,4.99,10.46,7.48.5.36,1,.72,1.5,1.07.66.47,1.67.12,2.05-.54.44-.75.12-1.58-.54-2.05h0Z"/>
      </g>
      <g>
        <line class="cls-1" x1="77.4" y1="78.03" x2="65.48" y2="87.17"/>
        <path class="cls-1" d="m76.65,76.73c-3.48,2.67-6.95,5.33-10.43,8l-1.49,1.14c-.64.49-.98,1.29-.54,2.05.37.63,1.41,1.03,2.05.54,3.48-2.67,6.95-5.33,10.43-8l1.49-1.14c.64-.49.98-1.29.54-2.05-.37-.63-1.41-1.03-2.05-.54h0Z"/>
      </g>
    </g>
  </g>
</svg>